<svg width="15" height="16" viewBox="0 0 15 16" fill="none" xmlns="http://www.w3.org/2000/svg">
<g clip-path="url(#clip0_107_723)">
<path d="M7.5 0.5C3.3579 0.5 0 3.8579 0 8C0 11.5172 2.4216 14.4686 5.6883 15.2792V10.292H4.1418V8H5.6883V7.0124C5.6883 4.4597 6.8436 3.2765 9.3498 3.2765C9.825 3.2765 10.6449 3.3698 10.9803 3.4628V5.5403C10.8033 5.5217 10.4958 5.5124 10.1139 5.5124C8.8842 5.5124 8.409 5.9783 8.409 7.1894V8H10.8588L10.4379 10.292H8.409V15.4451C12.1227 14.9966 15.0003 11.8346 15.0003 8C15 3.8579 11.6421 0.5 7.5 0.5Z" fill="#3F6CE1"/>
</g>
<defs>
<clipPath id="clip0_107_723">
<rect width="15" height="15" fill="white" transform="translate(0 0.5)"/>
</clipPath>
</defs>
</svg>
