<svg width="16" height="15" viewBox="0 0 16 15" fill="none" xmlns="http://www.w3.org/2000/svg">
<path fill-rule="evenodd" clip-rule="evenodd" d="M7.9248 0C3.78267 0 0.424805 3.35786 0.424805 7.5C0.424805 11.6421 3.78267 15 7.9248 15C12.0669 15 15.4248 11.6421 15.4248 7.5C15.4248 3.35786 12.0669 0 7.9248 0ZM6.27583 3.52417C6.7025 3.50475 6.83884 3.5 7.92518 3.5H7.92393C9.01061 3.5 9.14644 3.50475 9.57311 3.52417C9.99895 3.54367 10.2898 3.61108 10.5448 3.71C10.8081 3.81209 11.0306 3.94875 11.2531 4.17126C11.4756 4.39359 11.6123 4.61676 11.7148 4.87985C11.8131 5.13418 11.8806 5.42485 11.9006 5.85069C11.9198 6.27736 11.9248 6.4137 11.9248 7.50004C11.9248 8.58639 11.9198 8.72239 11.9006 9.14906C11.8806 9.57473 11.8131 9.86548 11.7148 10.1199C11.6123 10.3829 11.4756 10.6061 11.2531 10.8284C11.0309 11.0509 10.808 11.1879 10.545 11.2901C10.2905 11.389 9.99953 11.4564 9.5737 11.4759C9.14703 11.4953 9.01111 11.5001 7.92468 11.5001C6.83842 11.5001 6.70217 11.4953 6.2755 11.4759C5.84974 11.4564 5.55899 11.389 5.30449 11.2901C5.04157 11.1879 4.8184 11.0509 4.59615 10.8284C4.37373 10.6061 4.23706 10.3829 4.13481 10.1198C4.03597 9.86548 3.96856 9.57481 3.94897 9.14898C3.92964 8.7223 3.9248 8.58639 3.9248 7.50004C3.9248 6.4137 3.9298 6.27728 3.94889 5.85061C3.96806 5.42494 4.03556 5.13418 4.13472 4.87976C4.23722 4.61676 4.37389 4.39359 4.5964 4.17126C4.81873 3.94884 5.0419 3.81217 5.30499 3.71C5.55932 3.61108 5.84999 3.54367 6.27583 3.52417Z" fill="#C9C9C9"/>
<path fill-rule="evenodd" clip-rule="evenodd" d="M7.56587 4.22084L7.79139 4.2208L7.92471 4.22084C8.99272 4.22084 9.1193 4.22467 9.54106 4.24384C9.93106 4.26167 10.1427 4.32684 10.2837 4.38159C10.4704 4.45409 10.6035 4.54076 10.7434 4.68076C10.8834 4.82076 10.9701 4.9541 11.0427 5.14077C11.0975 5.2816 11.1627 5.49327 11.1805 5.88328C11.1997 6.30495 11.2038 6.43161 11.2038 7.49913C11.2038 8.56664 11.1997 8.6933 11.1805 9.11498C11.1627 9.50498 11.0975 9.71665 11.0427 9.85748C10.9702 10.0442 10.8834 10.1771 10.7434 10.317C10.6034 10.457 10.4705 10.5437 10.2837 10.6162C10.1429 10.6712 9.93106 10.7362 9.54106 10.754C9.11939 10.7732 8.99272 10.7773 7.92471 10.7773C6.85661 10.7773 6.73003 10.7732 6.30836 10.754C5.91835 10.736 5.70669 10.6708 5.5656 10.6161C5.37893 10.5436 5.2456 10.4569 5.1056 10.3169C4.96559 10.1769 4.87893 10.0439 4.80626 9.85715C4.75151 9.71632 4.68626 9.50465 4.66851 9.11464C4.64934 8.69297 4.64551 8.5663 4.64551 7.49813C4.64551 6.42995 4.64934 6.30395 4.66851 5.88228C4.68634 5.49227 4.75151 5.2806 4.80626 5.1396C4.87876 4.95293 4.96559 4.8196 5.1056 4.6796C5.2456 4.53959 5.37893 4.45293 5.5656 4.38026C5.7066 4.32526 5.91835 4.26026 6.30836 4.24234C6.67736 4.22567 6.82036 4.22067 7.56587 4.21984V4.22084ZM10.0599 4.88501C9.79489 4.88501 9.57989 5.09977 9.57989 5.36485C9.57989 5.62986 9.79489 5.84486 10.0599 5.84486C10.3249 5.84486 10.5399 5.62986 10.5399 5.36485C10.5399 5.09985 10.3249 4.88485 10.0599 4.88485V4.88501ZM5.87052 7.50004C5.87052 6.36564 6.79023 5.4459 7.92463 5.44585C9.05905 5.44585 9.97856 6.36561 9.97856 7.50004C9.97856 8.63447 9.05914 9.55381 7.92471 9.55381C6.79028 9.55381 5.87052 8.63447 5.87052 7.50004Z" fill="#C9C9C9"/>
<path d="M7.92514 6.16669C8.66149 6.16669 9.25849 6.76362 9.25849 7.50004C9.25849 8.23638 8.66149 8.83339 7.92514 8.83339C7.18872 8.83339 6.5918 8.23638 6.5918 7.50004C6.5918 6.76362 7.18872 6.16669 7.92514 6.16669Z" fill="#C9C9C9"/>
</svg>
