<svg width="16" height="15" viewBox="0 0 16 15" fill="none" xmlns="http://www.w3.org/2000/svg">
<path fill-rule="evenodd" clip-rule="evenodd" d="M7.9248 0C3.78267 0 0.424805 3.35786 0.424805 7.5C0.424805 11.6421 3.78267 15 7.9248 15C12.0669 15 15.4248 11.6421 15.4248 7.5C15.4248 3.35786 12.0669 0 7.9248 0ZM4.02531 6.21183H5.72497V11.3186H4.02531V6.21183ZM5.83692 4.63209C5.82589 4.13138 5.46782 3.75 4.88638 3.75C4.30493 3.75 3.9248 4.13138 3.9248 4.63209C3.9248 5.12244 4.2937 5.5148 4.86431 5.5148H4.87518C5.46782 5.5148 5.83692 5.12244 5.83692 4.63209ZM9.89766 6.09191C11.0161 6.09191 11.8546 6.82195 11.8546 8.39054L11.8545 11.3186H10.1549V8.58648C10.1549 7.90023 9.909 7.43195 9.29371 7.43195C8.82414 7.43195 8.54445 7.74764 8.42161 8.05255C8.37667 8.16182 8.36564 8.31407 8.36564 8.4667V11.3187H6.66577C6.66577 11.3187 6.68818 6.69116 6.66577 6.21196H8.36564V6.9353C8.59123 6.58758 8.99525 6.09191 9.89766 6.09191Z" fill="#C9C9C9"/>
</svg>
