<svg width="16" height="15" viewBox="0 0 16 15" fill="none" xmlns="http://www.w3.org/2000/svg">
<path fill-rule="evenodd" clip-rule="evenodd" d="M7.9248 15C3.78267 15 0.424805 11.6421 0.424805 7.5C0.424805 3.35786 3.78267 0 7.9248 0C12.0669 0 15.4248 3.35786 15.4248 7.5C15.4248 11.6421 12.0669 15 7.9248 15ZM8.0293 7.07907C8.6434 7.07907 11.6293 5.4 11.6293 5.4L11.6341 5.1C11.6341 4.7688 11.3653 4.5 11.0332 4.5H5.0254C4.6936 4.5 4.4248 4.7688 4.4248 5.1V5.3673C4.4248 5.3673 7.4434 7.07907 8.0293 7.07907ZM4.4296 6.3C4.4296 6.3 7.4434 7.90407 8.0293 7.90407C8.67161 7.90407 11.6293 6.3 11.6293 6.3L11.6341 9.9C11.6341 10.2312 11.3653 10.5 11.0332 10.5H5.0254C4.6939 10.5 4.4248 10.2312 4.4248 9.9L4.4296 6.3Z" fill="#C9C9C9"/>
</svg>
