<svg width="16" height="15" viewBox="0 0 16 15" fill="none" xmlns="http://www.w3.org/2000/svg">
<path d="M5.56299 1.33119C5.84229 1.33119 6.06872 1.55762 6.06872 1.83692C6.06872 2.08519 5.88981 2.29168 5.6539 2.3345L5.56299 2.34265H2.52863C1.74 2.34265 1.09191 2.94435 1.0184 3.71371L1.01145 3.85983V11.9514C1.01145 12.7401 1.61315 13.3882 2.38252 13.4617L2.52863 13.4686H10.6203C11.4089 13.4686 12.057 12.8669 12.1305 12.0976L12.1374 11.9514V10.94C12.1374 10.6607 12.3639 10.4343 12.6432 10.4343C12.8914 10.4343 13.0979 10.6132 13.1407 10.8491L13.1489 10.94V11.9514C13.1489 13.2921 12.1055 14.3891 10.7865 14.4747L10.6203 14.4801H2.52863C1.18797 14.4801 0.0909918 13.4367 0.00537859 12.1177L0 11.9514V3.85983C0 2.51916 1.04335 1.42219 2.36237 1.33657L2.52863 1.33119H5.56299ZM10.3856 0.429626L10.448 0.483243L14.9966 4.95506C15.2089 5.16375 15.2282 5.49897 15.0546 5.73069L14.9967 5.79688L10.4481 10.2701C10.1064 10.6061 9.55105 10.3904 9.49036 9.93249L9.485 9.84925V7.72975L9.22435 7.75321C7.40343 7.94782 5.65823 8.78843 3.97765 10.289C3.58376 10.6408 2.97435 10.3082 3.03913 9.77693C3.54356 5.63987 5.65442 3.35963 9.25783 3.0736L9.485 3.05832V0.904179C9.485 0.418914 10.0213 0.157545 10.3856 0.429626Z" fill="#C9C9C9"/>
</svg>
