<svg width="15" height="16" viewBox="0 0 15 16" fill="none" xmlns="http://www.w3.org/2000/svg">
<g clip-path="url(#clip0_107_726)">
<path d="M10.6703 0.5H8.14238V10.7174C8.14238 11.9348 7.17012 12.9348 5.96016 12.9348C4.75021 12.9348 3.77793 11.9348 3.77793 10.7174C3.77793 9.52175 4.72861 8.54346 5.89536 8.5V5.93479C3.3242 5.97825 1.25 8.08696 1.25 10.7174C1.25 13.3696 3.36741 15.5 5.98178 15.5C8.59611 15.5 10.7135 13.3478 10.7135 10.7174V5.47825C11.6642 6.17392 12.8309 6.58696 14.0625 6.60871V4.04348C12.1612 3.97826 10.6703 2.41304 10.6703 0.5Z" fill="white"/>
</g>
<defs>
<clipPath id="clip0_107_726">
<rect width="15" height="15" fill="white" transform="translate(0 0.5)"/>
</clipPath>
</defs>
</svg>
