<svg width="15" height="15" viewBox="0 0 15 15" fill="none" xmlns="http://www.w3.org/2000/svg">
<g clip-path="url(#clip0_154_1585)">
<path d="M12.6298 2.19994C11.9523 1.49994 11.1699 0.958276 10.2826 0.574943C9.3953 0.191609 8.4677 -5.72205e-05 7.49976 -5.72205e-05C6.53182 -5.72205e-05 5.60422 0.191609 4.71694 0.574943C3.82967 0.958276 3.04725 1.49994 2.3697 2.19994C1.69214 2.89994 1.16784 3.70828 0.796798 4.62494C0.425756 5.54161 0.240234 6.49994 0.240234 7.49994C0.240234 8.49994 0.425756 9.45828 0.796798 10.3749C1.16784 11.2916 1.69214 12.0999 2.3697 12.7999C3.04725 13.4999 3.82967 14.0416 4.71694 14.4249C5.60422 14.8083 6.53182 14.9999 7.49976 14.9999C8.4677 14.9999 9.3953 14.8083 10.2826 14.4249C11.1699 14.0416 11.9523 13.4999 12.6298 12.7999C13.3074 12.0999 13.8317 11.2916 14.2027 10.3749C14.5738 9.45828 14.7593 8.49994 14.7593 7.49994C14.7593 6.49994 14.5738 5.54161 14.2027 4.62494C13.8317 3.70828 13.3074 2.89994 12.6298 2.19994ZM3.38603 12.5999C3.48282 11.8999 3.72481 11.2583 4.11198 10.6749C4.49916 10.0916 4.99119 9.63328 5.58809 9.29994C6.18498 8.96661 6.82221 8.79994 7.49976 8.79994C8.04826 8.79994 8.57256 8.90828 9.07266 9.12494C9.57276 9.34161 10.0164 9.64994 10.4036 10.0499C11.0811 10.7499 11.4844 11.5999 11.6135 12.5999C11.0327 13.0666 10.3955 13.4333 9.70182 13.6999C9.00813 13.9666 8.27411 14.0999 7.49976 14.0999C6.72541 14.0999 5.99139 13.9666 5.29771 13.6999C4.60402 13.4333 3.96679 13.0666 3.38603 12.5999ZM7.49976 7.89994C6.88673 7.89994 6.36244 7.67494 5.92686 7.22494C5.49129 6.77494 5.27351 6.24161 5.27351 5.62494C5.27351 5.00828 5.49129 4.47494 5.92686 4.02494C6.36244 3.57494 6.88673 3.34994 7.49976 3.34994C8.11279 3.34994 8.63709 3.57494 9.07266 4.02494C9.50823 4.47494 9.72602 5.00828 9.72602 5.62494C9.72602 6.24161 9.50823 6.77494 9.07266 7.22494C8.63709 7.67494 8.11279 7.89994 7.49976 7.89994ZM12.3394 11.8499C12.1136 10.9166 11.678 10.1166 11.0327 9.44994C10.5165 8.88328 9.90347 8.48328 9.19365 8.24994C9.61309 7.94994 9.9438 7.56661 10.1858 7.09994C10.4278 6.63328 10.5488 6.12494 10.5488 5.57494C10.5488 5.02494 10.4116 4.50828 10.1374 4.02494C9.86314 3.54161 9.4921 3.15828 9.02426 2.87494C8.55643 2.59161 8.04826 2.44994 7.49976 2.44994C6.95126 2.44994 6.4431 2.59161 5.97526 2.87494C5.50742 3.15828 5.13638 3.54161 4.86213 4.02494C4.58788 4.50828 4.45076 5.02494 4.45076 5.57494C4.45076 6.12494 4.57175 6.63328 4.81374 7.09994C5.05572 7.56661 5.38643 7.94994 5.80587 8.24994C5.16058 8.48328 4.59595 8.83328 4.11198 9.29994C3.3699 9.99994 2.88593 10.8499 2.66008 11.8499C2.17611 11.2499 1.797 10.5749 1.52275 9.82494C1.2485 9.07494 1.11138 8.29994 1.11138 7.49994C1.11138 6.29994 1.39369 5.19161 1.95832 4.17494C2.52295 3.15828 3.2973 2.35828 4.28137 1.77494C5.26544 1.19161 6.33824 0.899942 7.49976 0.899942C8.66129 0.899942 9.73408 1.19161 10.7182 1.77494C11.7022 2.35828 12.4766 3.15828 13.0412 4.17494C13.6058 5.19161 13.8881 6.29994 13.8881 7.49994C13.8881 8.29994 13.751 9.07494 13.4768 9.82494C13.2025 10.5749 12.8234 11.2499 12.3394 11.8499Z" fill="#C9C9C9"/>
</g>
<defs>
<clipPath id="clip0_154_1585">
<rect width="15" height="15" fill="white" transform="matrix(1 0 0 -1 0 15)"/>
</clipPath>
</defs>
</svg>
